<svg width="200" height="200" viewBox="0 0 200 200" xmlns="http://www.w3.org/2000/svg">
  <!-- Background -->
  <rect width="200" height="200" rx="30" ry="30" fill="#f0f8ff"/>

  <!-- Stand -->
  <path d="M 100 180 L 80 100 L 120 100 Z" fill="#add8e6" />

  <!-- Main Wheel -->
  <circle cx="100" cy="100" r="70" stroke="#ffb6c1" stroke-width="8" fill="none"/>

  <!-- Spokes -->
  <line x1="100" y1="100" x2="100" y2="30" stroke="#ffb6c1" stroke-width="4"/>
  <line x1="100" y1="100" x2="100" y2="170" stroke="#ffb6c1" stroke-width="4"/>
  <line x1="100" y1="100" x2="30" y2="100" stroke="#ffb6c1" stroke-width="4"/>
  <line x1="100" y1="100" x2="170" y2="100" stroke="#ffb6c1" stroke-width="4"/>
  <line x1="100" y1="100" x2="50" y2="50" stroke="#ffb6c1" stroke-width="4"/>
  <line x1="100" y1="100" x2="150" y2="150" stroke="#ffb6c1" stroke-width="4"/>
  <line x1="100" y1="100" x2="150" y2="50" stroke="#ffb6c1" stroke-width="4"/>
  <line x1="100" y1="100" x2="50" y2="150" stroke="#ffb6c1" stroke-width="4"/>

  <!-- Center pin -->
  <circle cx="100" cy="100" r="8" fill="#ff69b4"/>

  <!-- Cabins -->
  <circle cx="100" cy="30" r="10" fill="#add8e6" stroke="#fff" stroke-width="2"/>
  <circle cx="100" cy="170" r="10" fill="#add8e6" stroke="#fff" stroke-width="2"/>
  <circle cx="30" cy="100" r="10" fill="#add8e6" stroke="#fff" stroke-width="2"/>
  <circle cx="170" cy="100" r="10" fill="#add8e6" stroke="#fff" stroke-width="2"/>
  <circle cx="50" cy="50" r="10" fill="#add8e6" stroke="#fff" stroke-width="2"/>
  <circle cx="150" cy="150" r="10" fill="#add8e6" stroke="#fff" stroke-width="2"/>
  <circle cx="150" cy="50" r="10" fill="#add8e6" stroke="#fff" stroke-width="2"/>
  <circle cx="50" cy="150" r="10" fill="#add8e6" stroke="#fff" stroke-width="2"/>
</svg>